<svg width="16" height="16" viewBox="0 0 16 16" fill="none" xmlns="http://www.w3.org/2000/svg">
<path d="M2.45337 8.66667L2.10137 9.02134C2.19501 9.11416 2.32152 9.16624 2.45337 9.16624C2.58522 9.16624 2.71173 9.11416 2.80537 9.02134L2.45337 8.66667ZM3.92537 7.91067C4.01961 7.81714 4.07284 7.69 4.07334 7.55723C4.07384 7.42445 4.02157 7.29691 3.92804 7.20267C3.88173 7.15601 3.82668 7.11893 3.76603 7.09354C3.70539 7.06815 3.64034 7.05496 3.57459 7.05471C3.44182 7.05421 3.31428 7.10647 3.22004 7.20001L3.92537 7.91067ZM1.68537 7.20001C1.5907 7.10925 1.46416 7.05932 1.33302 7.06098C1.20188 7.06264 1.07665 7.11576 0.984305 7.20889C0.891963 7.30202 0.839908 7.4277 0.83936 7.55885C0.838811 7.68999 0.889813 7.81611 0.981372 7.91001L1.68537 7.20001ZM12.4107 4.92801C12.4442 4.98572 12.489 5.03614 12.5423 5.07629C12.5956 5.11644 12.6564 5.14552 12.7211 5.1618C12.7858 5.17808 12.8531 5.18124 12.9191 5.17109C12.9851 5.16095 13.0483 5.1377 13.1052 5.10271C13.162 5.06773 13.2113 5.02173 13.25 4.96741C13.2888 4.91309 13.3163 4.85156 13.3309 4.78644C13.3456 4.72132 13.347 4.65394 13.3352 4.58825C13.3233 4.52257 13.2985 4.45993 13.262 4.40401L12.4107 4.92801ZM8.05271 1.50001C4.68804 1.50001 1.95337 4.20734 1.95337 7.55534H2.95271C2.95271 4.76734 5.23271 2.50001 8.05271 2.50001V1.50001ZM1.95337 7.55534L1.95271 8.66667H2.95271V7.55534H1.95337ZM2.80537 9.02134L3.92537 7.91067L3.22004 7.20001L2.10004 8.31134L2.80537 9.02134ZM2.80604 8.31201L1.68537 7.20001L0.981372 7.91001L2.10137 9.02134L2.80604 8.31201ZM13.262 4.40534C12.7147 3.51616 11.9484 2.78219 11.0365 2.27354C10.1246 1.7649 9.09687 1.49857 8.05271 1.50001V2.50001C8.92618 2.49832 9.78615 2.72071 10.5491 3.14592C11.3121 3.57113 11.9526 4.18427 12.4107 4.92801L13.262 4.40534ZM13.5427 7.33334L13.894 6.97801C13.8005 6.88559 13.6742 6.83377 13.5427 6.83377C13.4112 6.83377 13.285 6.88559 13.1914 6.97801L13.5427 7.33334ZM12.0667 8.08867C12.02 8.13485 11.9828 8.18978 11.9574 8.25032C11.9319 8.31086 11.9186 8.37583 11.9182 8.44151C11.9175 8.57416 11.9694 8.70168 12.0627 8.79601C12.156 8.89033 12.2829 8.94375 12.4155 8.9445C12.5482 8.94525 12.6757 8.89327 12.77 8.80001L12.0667 8.08867ZM14.3154 8.80001C14.3618 8.84739 14.4172 8.88506 14.4783 8.91082C14.5395 8.93658 14.6051 8.94992 14.6715 8.95005C14.7378 8.95019 14.8035 8.93711 14.8648 8.9116C14.926 8.88608 14.9816 8.84863 15.0282 8.80143C15.0748 8.75423 15.1116 8.69823 15.1364 8.63668C15.1611 8.57513 15.1734 8.50926 15.1724 8.44292C15.1715 8.37659 15.1574 8.3111 15.1308 8.25028C15.1043 8.18946 15.066 8.13452 15.018 8.08867L14.3154 8.80001ZM3.54537 11.0707C3.47571 10.9578 3.36405 10.8772 3.23496 10.8466C3.10588 10.816 2.96993 10.838 2.85704 10.9077C2.74415 10.9773 2.66355 11.089 2.63298 11.2181C2.60241 11.3472 2.62438 11.4831 2.69404 11.596L3.54537 11.0707ZM7.92204 14.5C11.2967 14.5 14.042 11.7947 14.042 8.44467H13.042C13.042 11.2313 10.7554 13.5 7.92204 13.5V14.5ZM14.042 8.44467V7.33334H13.042V8.44467H14.042ZM13.1914 6.97801L12.0667 8.08867L12.77 8.80001L13.894 7.68867L13.1914 6.97801ZM13.1914 7.68867L14.3154 8.80001L15.018 8.08867L13.894 6.97801L13.1914 7.68867ZM2.69404 11.596C3.24513 12.4861 4.01421 13.2196 4.92933 13.7281C5.84446 14.2365 6.87516 14.5023 7.92204 14.5V13.5C7.04583 13.5023 6.18296 13.2802 5.41686 12.855C4.65075 12.4297 4.00692 11.8155 3.54537 11.0707L2.69404 11.596Z" fill="#2E7D32"/>
</svg>
